# xmcd CD database file
#
# Track frame offsets:
#	150
#	18877
#	40595
#	59317
#
# Disc length: 1076 seconds
#
# Revision: 0
# Processed by: cddbd v1.5.1PL0 Copyright (c) Steve Scherf et al.
# Submitted via: CDex 1.51
#
DISCID=24043204
DTITLE=バッチィ＆グーコ（氷上恭子、今井由香） - モンコレナイト（ＥＤ）
DYEAR=1900
DGENRE=Anime
TTITLE0=サンバdeバッチグー
TTITLE1=薔薇の部屋
TTITLE2=サンバｄｅバッチグー（カラオケ）
TTITLE3=薔薇の部屋（カラオケ）
EXTD=
EXTT0=
EXTT1=
EXTT2=
EXTT3=
PLAYORDER=
